<?xml version="1.0" encoding="utf-8"?>
<!-- Generator: Adobe Illustrator 25.2.3, SVG Export Plug-In . SVG Version: 6.00 Build 0)  -->
<svg version="1.1" id="Layer_1" xmlns="http://www.w3.org/2000/svg" xmlns:xlink="http://www.w3.org/1999/xlink" x="0px" y="0px"
	 viewBox="0 0 858 850" style="enable-background:new 0 0 858 850;" xml:space="preserve">
<g>
	<rect x="234.08" y="84.9" transform="matrix(0.9976 -0.0698 0.0698 0.9976 -28.5047 17.5184)" width="5" height="664"/>
	<path d="M217.04,789.67l-2.3-32.92l90.78-6.35l2.3,32.92L217.04,789.67z M220.07,761.39l1.6,22.94l80.8-5.65l-1.6-22.94
		L220.07,761.39z"/>
	<path d="M336.76,363.18c-26.17,0-52.42-5.65-78.58-21.18l-1.12-0.66L237.36,81.25l4.13,2.45c66.43,39.44,134.4,19.27,200.14-0.25
		c66.76-19.82,135.8-40.32,204.11,0.25l1.33,0.79L627.4,344.06l-3.46-2.06c-60.02-35.64-121.46-17.39-180.89,0.25
		C408.14,352.62,372.53,363.18,336.76,363.18z M261.86,338.36c59.66,34.75,120.72,16.63,179.77-0.9
		c59.33-17.61,120.63-35.81,181.39-1.75l18.83-248.48c-66.01-38.39-133.51-18.35-198.8,1.03c-65.42,19.42-133.02,39.49-199.99,2.13
		L261.86,338.36z"/>
	<path d="M456.97,172.97c0.65,5.06,0.33,9.69-0.97,13.87c-1.3,4.19-3.22,7.99-5.78,11.42c-2.51,3.32-5.49,6.51-8.93,9.58
		c-3.44,3.07-7.12,6.09-11.04,9.06l2.25,17.43l-13.87,1.79l-3.04-23.63c3.11-2.34,6.47-4.9,10.08-7.68c3.61-2.77,6.5-5.48,8.68-8.13
		c2.65-3.07,4.62-6.15,5.9-9.23c1.28-3.08,1.64-6.84,1.07-11.28c-0.75-5.84-3.29-9.93-7.61-12.29c-4.32-2.36-9.61-3.13-15.86-2.33
		c-5.58,0.72-10.75,2.28-15.51,4.68c-4.76,2.4-8.47,4.69-11.13,6.87l-0.78,0.1l-2.04-15.81c3.44-1.86,7.86-3.7,13.27-5.53
		c5.41-1.83,10.59-3.06,15.55-3.7c11.11-1.43,20.22,0.14,27.35,4.71C451.7,157.43,455.84,164.13,456.97,172.97z M437.73,265.16
		l-15.81,2.04l-2.11-16.35l15.81-2.04L437.73,265.16z"/>
</g>
</svg>
