<?xml version="1.0" encoding="utf-8"?>
<!-- Generator: Adobe Illustrator 25.2.3, SVG Export Plug-In . SVG Version: 6.00 Build 0)  -->
<svg version="1.1" id="Layer_1" xmlns="http://www.w3.org/2000/svg" xmlns:xlink="http://www.w3.org/1999/xlink" x="0px" y="0px"
	 viewBox="0 0 238 174" style="enable-background:new 0 0 238 174;" xml:space="preserve">
<style type="text/css">
	.st0{fill:#428BCA;}
</style>
<g>
	<path class="st0" d="M61.5,169.5c-14.3,0-28.6-3.1-42.8-11.5l-0.6-0.4L7.4,15.9l2.3,1.3c36.2,21.5,73.2,10.5,109-0.1
		c36.4-10.8,74-22,111.2,0.1l0.7,0.4l-10.7,141.4L218,158c-32.7-19.4-66.2-9.5-98.6,0.1C100.4,163.7,81,169.5,61.5,169.5z M20.7,156
		c32.5,18.9,65.8,9.1,97.9-0.5c32.3-9.6,65.7-19.5,98.8-1l10.3-135.4c-36-20.9-72.7-10-108.3,0.6C83.8,30.3,47,41.2,10.5,20.9
		L20.7,156z"/>
	<path class="st0" d="M127,65.9c0.4,2.8,0.2,5.3-0.5,7.6c-0.7,2.3-1.8,4.4-3.1,6.2c-1.4,1.8-3,3.5-4.9,5.2c-1.9,1.7-3.9,3.3-6,4.9
		l1.2,9.5l-7.6,1l-1.7-12.9c1.7-1.3,3.5-2.7,5.5-4.2c2-1.5,3.5-3,4.7-4.4c1.4-1.7,2.5-3.3,3.2-5c0.7-1.7,0.9-3.7,0.6-6.1
		c-0.4-3.2-1.8-5.4-4.1-6.7c-2.4-1.3-5.2-1.7-8.6-1.3c-3,0.4-5.9,1.2-8.4,2.5c-2.6,1.3-4.6,2.6-6.1,3.7L90.8,66l-1.1-8.6
		c1.9-1,4.3-2,7.2-3c2.9-1,5.8-1.7,8.5-2c6.1-0.8,11,0.1,14.9,2.6C124.2,57.4,126.4,61.1,127,65.9z M116.6,116.1l-8.6,1.1l-1.1-8.9
		l8.6-1.1L116.6,116.1z"/>
</g>
</svg>
